<?xml version="1.0" standalone="no"?>
<!DOCTYPE svg PUBLIC "-//W3C//DTD SVG 20010904//EN"
 "http://www.w3.org/TR/2001/REC-SVG-20010904/DTD/svg10.dtd">
<svg version="1.0" xmlns="http://www.w3.org/2000/svg"
 width="150.000000pt" height="150.000000pt" viewBox="0 0 150.000000 150.000000"
 preserveAspectRatio="xMidYMid meet">
<metadata>
Created by potrace 1.11, written by Peter Selinger 2001-2013
</metadata>
<g transform="translate(0.000000,150.000000) scale(0.100000,-0.100000)"
fill="#000000" stroke="none">
<path d="M0 750 l0 -750 109 0 c105 0 110 1 117 22 l7 23 10 -25 c8 -21 11
-22 14 -7 3 9 11 17 18 17 23 0 45 -12 39 -21 -3 -5 1 -9 9 -9 7 0 19 12 26
26 9 20 17 25 36 22 13 -3 30 -1 37 3 11 7 11 9 0 9 -10 0 -10 4 2 16 9 8 16
25 16 36 0 20 1 20 19 4 18 -16 20 -16 40 10 11 15 21 31 21 35 0 16 -19 9
-33 -11 -16 -22 -52 -17 -43 6 3 7 2 16 -3 18 -10 7 -82 -32 -97 -52 -6 -8
-16 -12 -21 -9 -6 4 -13 0 -17 -8 -8 -22 -26 -18 -26 6 0 11 -5 17 -10 14 -6
-3 -10 3 -10 14 0 12 -6 21 -14 21 -8 0 -17 6 -19 13 -3 6 -6 2 -6 -10 -1 -12
-5 -24 -10 -27 -13 -8 -21 18 -14 44 5 20 4 21 -16 11 -19 -11 -25 -23 -22
-43 0 -4 -9 -10 -21 -13 -16 -6 -18 -9 -7 -16 11 -6 11 -11 1 -21 -9 -9 -12
-9 -12 1 0 7 -5 9 -10 6 -6 -4 -8 -11 -5 -16 4 -5 2 -9 -3 -9 -6 0 -12 6 -15
14 -8 21 4 56 19 56 8 0 14 5 14 11 0 7 8 19 18 28 22 21 25 36 8 51 -11 9
-16 7 -21 -9 -3 -12 -11 -21 -17 -21 -5 0 -18 -10 -27 -21 -12 -16 -23 -20
-39 -15 -12 4 -22 12 -22 17 0 6 5 7 11 3 8 -4 8 0 0 15 -9 16 -9 26 0 43 10
18 9 20 -6 14 -14 -5 -16 -2 -11 16 3 13 6 31 6 41 0 10 5 15 10 12 6 -4 10 7
10 25 0 22 -4 29 -13 24 -6 -4 -2 4 11 18 16 17 24 41 27 74 3 43 2 47 -10 31
-8 -12 -15 -14 -20 -8 -3 6 -1 11 6 11 7 0 9 9 6 22 -5 17 2 30 29 54 19 18
39 34 44 36 6 2 15 30 21 63 6 33 15 66 21 73 7 8 7 12 0 12 -14 0 -9 60 7 69
6 4 13 18 14 29 1 12 5 22 9 22 4 0 8 7 8 16 0 9 17 22 40 31 28 11 39 21 35
31 -3 8 -1 20 5 27 7 9 6 16 -4 24 -8 7 -12 19 -9 27 3 8 -1 14 -11 14 -9 0
-16 -4 -16 -10 0 -5 -5 -10 -12 -10 -6 0 -3 9 7 20 10 11 24 20 31 20 21 0 27
20 13 46 -11 22 -9 29 19 68 18 24 32 49 32 56 0 6 5 8 10 5 6 -3 10 -1 10 4
0 6 9 11 21 11 11 0 27 7 35 15 9 8 31 15 49 15 41 0 105 29 105 47 0 7 8 13
18 13 11 0 27 9 37 20 10 11 21 18 25 15 4 -2 19 9 35 25 l27 29 -36 -3 c-39
-3 -66 13 -66 40 0 12 -47 14 -300 14 l-300 0 0 -750z m237 -643 c-14 -27 -27
-26 -27 0 0 8 4 12 9 9 5 -3 12 1 15 10 4 9 9 15 11 12 3 -3 -1 -17 -8 -31z
m-67 -17 c0 -5 -5 -10 -11 -10 -5 0 -7 5 -4 10 3 6 8 10 11 10 2 0 4 -4 4 -10z
m-3 -32 c2 6 9 9 14 6 12 -7 -8 -34 -26 -34 -20 0 -39 27 -23 33 7 2 17 -1 21
-7 6 -8 10 -7 14 2z"/>
<path d="M1170 1496 c0 -3 30 -20 68 -39 37 -18 108 -55 157 -81 83 -44 88
-46 65 -19 -36 40 -60 87 -60 117 l0 26 -115 0 c-63 0 -115 -2 -115 -4z"/>
<path d="M1110 1364 c0 -10 27 -33 33 -28 3 3 15 -10 28 -28 12 -18 35 -46 51
-62 37 -38 38 -74 1 -78 -25 -3 -28 -7 -26 -38 6 -83 7 -85 40 -94 17 -5 36
-20 42 -33 10 -23 41 -32 41 -13 0 6 5 10 11 10 6 0 8 -7 5 -16 -4 -12 -2 -15
9 -10 12 4 14 0 10 -17 -4 -13 -1 -36 5 -52 7 -17 14 -41 16 -55 3 -25 3 -25
-8 -3 -13 28 -40 37 -82 29 -24 -5 -40 -1 -59 14 -14 11 -32 20 -41 20 -18 0
-21 -21 -5 -37 8 -8 6 -16 -7 -30 -11 -10 -20 -31 -22 -46 -3 -28 23 -86 45
-100 18 -11 13 -67 -6 -67 -12 0 -12 -3 -3 -12 16 -16 15 -48 0 -50 -27 -3
-34 -4 -71 -17 -34 -12 -41 -11 -83 13 -69 38 -84 32 -41 -17 16 -19 35 -27
72 -30 28 -3 72 -13 99 -23 40 -14 50 -14 57 -3 6 10 9 11 9 2 0 -7 5 -13 11
-13 5 0 7 5 3 11 -12 20 38 -2 63 -27 25 -25 31 -40 11 -28 -9 5 -8 2 1 -10 8
-9 20 -15 27 -12 7 3 16 0 20 -6 4 -6 3 -8 -2 -5 -6 3 -16 1 -24 -4 -12 -8
-12 -12 -2 -16 20 -8 14 -22 -8 -18 -11 2 -20 0 -20 -6 0 -5 5 -9 10 -9 6 0
10 -4 10 -10 0 -5 -8 -10 -19 -10 -10 0 -25 -8 -32 -17 -12 -15 -12 -16 1 -8
8 4 12 4 7 0 -13 -15 -37 -14 -37 1 0 9 -4 13 -9 9 -5 -3 -16 3 -23 12 -28 38
-107 89 -171 113 -19 6 -26 14 -21 22 6 10 4 10 -8 0 -14 -11 -17 -10 -21 5
-4 17 -5 17 -6 1 0 -10 -5 -18 -10 -18 -17 0 -126 53 -157 77 -17 13 -38 23
-47 23 -10 0 -17 5 -17 11 0 6 -7 8 -15 5 -9 -3 -18 1 -22 10 -4 11 -8 12 -13
4 -9 -14 -47 4 -68 33 -7 9 -17 15 -21 12 -5 -2 -17 2 -27 10 -10 8 -28 15
-40 15 -11 0 -24 3 -28 8 -4 4 -13 7 -19 7 -7 1 -11 6 -10 13 2 7 0 11 -5 10
-4 -1 -17 4 -30 12 -25 17 -29 48 -7 64 8 6 16 22 18 35 2 14 8 26 14 28 6 2
8 15 5 28 -2 15 0 25 7 25 6 0 11 7 11 15 0 8 -4 15 -8 15 -13 0 -35 -47 -28
-59 5 -7 -4 -11 -23 -11 -17 0 -31 5 -31 10 0 6 5 10 10 10 6 0 10 7 10 15 0
13 -3 13 -25 -1 -15 -9 -25 -13 -24 -8 3 20 -2 28 -10 15 -6 -8 -6 -24 0 -38
12 -33 0 -81 -23 -89 -11 -3 -17 -12 -14 -20 3 -8 1 -14 -3 -14 -5 0 -8 -8 -6
-17 2 -10 4 -22 4 -27 1 -4 13 -5 28 -1 21 5 24 4 16 -7 -14 -16 -5 -68 11
-68 7 0 17 5 23 11 11 11 113 20 113 10 0 -3 14 -22 30 -41 17 -19 33 -43 36
-52 3 -10 12 -18 19 -18 8 0 17 -11 21 -25 15 -60 225 -165 331 -165 19 0 54
-9 78 -20 25 -11 65 -23 90 -26 24 -4 42 -11 39 -15 -3 -5 0 -9 5 -9 6 0 11
-9 11 -21 0 -12 8 -23 20 -26 12 -3 20 -14 20 -27 0 -17 -2 -18 -11 -6 -8 11
-9 7 -4 -17 4 -19 2 -34 -5 -38 -8 -5 -6 -12 5 -25 14 -16 14 -19 1 -33 -14
-13 -13 -17 2 -35 16 -18 31 -20 150 -21 l132 -2 0 519 c0 448 -2 521 -15 532
-8 7 -21 10 -29 7 -8 -3 -17 1 -20 9 -4 11 0 13 19 8 18 -5 25 -2 25 9 0 8 6
18 13 21 6 3 2 3 -10 0 -16 -4 -23 1 -29 18 -7 23 -7 23 -19 -6 -7 -16 -15
-24 -19 -18 -3 6 -2 13 4 17 5 3 10 15 10 27 0 17 -2 18 -15 8 -13 -11 -15 -8
-16 21 l-1 34 -10 -27 c-9 -27 -34 -41 -25 -15 2 6 -9 20 -25 29 -15 10 -28
22 -28 28 0 5 -7 10 -16 10 -10 0 -14 5 -10 15 4 10 -3 20 -19 27 -14 6 -25
17 -25 24 0 16 -40 45 -52 38 -4 -3 -8 -2 -8 3 0 4 -12 14 -27 21 -29 13 -43
15 -43 6z m-670 -544 c0 -5 -2 -10 -4 -10 -3 0 -8 5 -11 10 -3 6 -1 10 4 10 6
0 11 -4 11 -10z m964 -26 c3 -8 2 -12 -4 -9 -6 3 -10 10 -10 16 0 14 7 11 14
-7z m-53 -499 c38 -7 51 -15 25 -15 -14 0 -17 -5 -13 -21 3 -12 3 -18 0 -15
-4 3 -12 1 -19 -5 -18 -14 -54 10 -54 37 0 23 9 36 20 29 4 -2 22 -7 41 -10z"/>
<path d="M366 1235 c-14 -22 -15 -25 -1 -25 10 0 15 -10 15 -30 0 -27 -3 -30
-29 -30 -17 0 -33 -5 -36 -10 -4 -6 -11 -7 -17 -4 -7 4 -8 -2 -3 -17 5 -13 9
-35 11 -47 1 -13 4 -25 6 -27 2 -2 30 2 63 8 55 11 60 14 63 40 2 15 7 27 12
27 6 0 6 10 0 25 -5 14 -7 31 -4 40 3 8 0 28 -7 45 -17 37 -50 40 -73 5z"/>
<path d="M1480 1160 c-13 -8 -12 -10 3 -10 9 0 17 5 17 10 0 12 -1 12 -20 0z"/>
<path d="M881 1024 c-19 -13 -46 -24 -60 -24 -14 0 -32 -4 -40 -9 -20 -13 1
-22 67 -27 31 -3 62 -6 68 -8 6 -3 17 0 25 4 8 5 16 5 20 -2 4 -7 14 -6 30 3
20 11 21 14 7 17 -10 2 -18 10 -18 18 0 20 -32 54 -50 53 -8 0 -30 -12 -49
-25z"/>
<path d="M298 663 c7 -3 16 -2 19 1 4 3 -2 6 -13 5 -11 0 -14 -3 -6 -6z"/>
<path d="M88 503 c7 -3 16 -2 19 1 4 3 -2 6 -13 5 -11 0 -14 -3 -6 -6z"/>
<path d="M1051 494 c0 -11 3 -14 6 -6 3 7 2 16 -1 19 -3 4 -6 -2 -5 -13z"/>
<path d="M230 486 c0 -24 15 -26 28 -5 11 16 9 19 -8 19 -11 0 -20 -6 -20 -14z"/>
<path d="M270 439 c0 -11 4 -18 10 -14 5 3 7 12 3 20 -7 21 -13 19 -13 -6z"/>
<path d="M230 440 c0 -6 5 -10 11 -10 7 0 9 -10 7 -25 -3 -14 -1 -25 3 -25 16
0 10 58 -6 64 -8 3 -15 1 -15 -4z"/>
<path d="M171 414 c0 -11 3 -14 6 -6 3 7 2 16 -1 19 -3 4 -6 -2 -5 -13z"/>
<path d="M368 399 c-10 -10 -18 -21 -18 -24 0 -3 0 -8 0 -12 0 -5 -5 -1 -10 7
-7 11 -10 4 -10 -26 0 -22 -6 -46 -12 -53 -11 -10 -4 -12 37 -9 45 3 50 1 48
-17 -1 -11 0 -14 3 -7 10 21 24 13 24 -13 0 -25 0 -25 36 -10 45 19 48 19 40
0 -3 -8 -1 -15 3 -15 5 0 7 -9 4 -19 -3 -13 2 -21 16 -26 11 -3 24 -4 28 -2 5
3 14 -1 21 -9 10 -11 10 -14 0 -14 -7 0 -4 -6 7 -12 28 -15 28 -15 20 -28 -5
-8 -11 -8 -21 1 -10 8 -14 8 -14 0 0 -6 5 -11 10 -11 6 0 10 -10 10 -22 0 -17
-3 -19 -9 -10 -7 11 -9 11 -14 -1 -3 -8 3 -21 13 -29 10 -9 19 -21 22 -28 2
-7 12 -11 22 -9 16 4 16 5 -1 24 -10 11 -19 34 -20 50 l-2 30 18 -22 c11 -13
24 -23 30 -23 6 0 11 -7 11 -15 0 -8 5 -15 11 -15 5 0 7 -5 4 -10 -4 -6 5 -10
19 -10 28 0 32 10 16 41 -9 15 -7 19 6 19 10 0 15 -3 11 -6 -12 -12 37 -42 57
-35 19 8 66 -8 66 -21 0 -5 13 -8 29 -8 22 0 32 6 37 22 4 13 2 24 -5 26 -17
6 -13 22 6 22 15 0 14 2 -3 15 -25 19 -38 19 -30 -1 5 -12 0 -15 -22 -11 -15
2 -21 2 -14 0 6 -3 12 -13 12 -24 0 -17 -3 -18 -20 -7 -11 7 -20 17 -20 21 0
13 -24 34 -36 30 -5 -2 -19 5 -31 16 -11 11 -31 21 -44 23 -17 2 -25 11 -27
28 -5 32 -22 52 -38 46 -8 -3 -13 0 -11 7 1 7 -4 11 -10 10 -7 -2 -13 3 -13
11 0 8 -20 24 -44 35 -28 14 -43 28 -42 39 1 13 -7 17 -30 18 -46 1 -64 11
-64 34 0 11 -7 23 -15 26 -8 4 -15 12 -15 20 0 19 -11 16 -32 -7z m92 -139 c0
-5 -2 -10 -4 -10 -3 0 -8 5 -11 10 -3 6 -1 10 4 10 6 0 11 -4 11 -10z m180
-107 c0 -19 -3 -24 -10 -17 -6 6 -8 18 -4 27 9 24 14 21 14 -10z m25 -23 c-3
-5 -1 -10 6 -10 7 0 10 -3 6 -6 -9 -9 -28 6 -22 17 4 5 8 9 11 9 3 0 2 -4 -1
-10z"/>
<path d="M132 399 c2 -7 10 -15 17 -17 8 -3 12 1 9 9 -2 7 -10 15 -17 17 -8 3
-12 -1 -9 -9z"/>
<path d="M270 397 c0 -10 -7 -20 -15 -23 -21 -9 -19 -21 6 -27 13 -4 28 2 42
16 21 21 21 22 2 26 -11 2 -23 8 -27 15 -5 7 -8 4 -8 -7z"/>
<path d="M50 360 c0 -11 2 -20 4 -20 2 0 6 9 9 20 3 11 1 20 -4 20 -5 0 -9 -9
-9 -20z"/>
<path d="M190 315 c0 -8 2 -15 4 -15 2 0 6 7 10 15 3 8 1 15 -4 15 -6 0 -10
-7 -10 -15z"/>
<path d="M140 305 c9 -10 9 -15 1 -15 -6 0 -11 -5 -11 -12 0 -6 9 -3 20 7 26
23 25 35 -1 35 -18 0 -19 -2 -9 -15z"/>
<path d="M66 285 c-9 -26 -7 -32 5 -12 6 10 9 21 6 23 -2 3 -7 -2 -11 -11z"/>
<path d="M240 234 l-25 -25 28 12 c15 7 27 18 27 26 0 17 0 17 -30 -13z"/>
<path d="M707 163 c-4 -3 -7 -11 -7 -17 0 -6 5 -5 12 2 6 6 9 14 7 17 -3 3 -9
2 -12 -2z"/>
</g>
</svg>
